<svg width="14" height="15" viewBox="0 0 14 15" fill="none" xmlns="http://www.w3.org/2000/svg">
<path d="M5.65625 10.8438L11.6562 4.84375L10.7188 3.875L5.65625 8.9375L3.28125 6.5625L2.34375 7.5L5.65625 10.8438ZM2.28125 2.8125C3.59375 1.5 5.16667 0.84375 7 0.84375C8.83333 0.84375 10.3958 1.5 11.6875 2.8125C13 4.10417 13.6562 5.66667 13.6562 7.5C13.6562 9.33333 13 10.9062 11.6875 12.2188C10.3958 13.5104 8.83333 14.1562 7 14.1562C5.16667 14.1562 3.59375 13.5104 2.28125 12.2188C0.989583 10.9062 0.34375 9.33333 0.34375 7.5C0.34375 5.66667 0.989583 4.10417 2.28125 2.8125Z" fill="#38C173"/>
</svg>
