<svg width="54" height="54" viewBox="0 0 54 54" fill="none" xmlns="http://www.w3.org/2000/svg">
<rect x="1.00195" y="1" width="52" height="52" rx="2" fill="white"/>
<rect x="1.00195" y="1" width="52" height="52" rx="2" stroke="black" stroke-linecap="square"/>
<path d="M27 26.5C28.0609 26.5 29.0783 26.0786 29.8284 25.3284C30.5786 24.5783 31 23.5609 31 22.5C31 21.4391 30.5786 20.4217 29.8284 19.6716C29.0783 18.9214 28.0609 18.5 27 18.5C25.9391 18.5 24.9217 18.9214 24.1716 19.6716C23.4214 20.4217 23 21.4391 23 22.5C23 23.5609 23.4214 24.5783 24.1716 25.3284C24.9217 26.0786 25.9391 26.5 27 26.5ZM22 35.5C23.0609 35.5 24.0783 35.0786 24.8284 34.3284C25.5786 33.5783 26 32.5609 26 31.5C26 30.4391 25.5786 29.4217 24.8284 28.6716C24.0783 27.9214 23.0609 27.5 22 27.5C20.9391 27.5 19.9217 27.9214 19.1716 28.6716C18.4214 29.4217 18 30.4391 18 31.5C18 32.5609 18.4214 33.5783 19.1716 34.3284C19.9217 35.0786 20.9391 35.5 22 35.5ZM32 35.5C33.0609 35.5 34.0783 35.0786 34.8284 34.3284C35.5786 33.5783 36 32.5609 36 31.5C36 30.4391 35.5786 29.4217 34.8284 28.6716C34.0783 27.9214 33.0609 27.5 32 27.5C30.9391 27.5 29.9217 27.9214 29.1716 28.6716C28.4214 29.4217 28 30.4391 28 31.5C28 32.5609 28.4214 33.5783 29.1716 34.3284C29.9217 35.0786 30.9391 35.5 32 35.5Z" stroke="black" stroke-width="1.5" stroke-linecap="round" stroke-linejoin="round"/>
</svg>
