<svg width="22" height="22" viewBox="0 0 22 22" fill="none" xmlns="http://www.w3.org/2000/svg">
<path d="M11.5 21H5.59087C4.04549 21 2.81631 20.248 1.71266 19.1966C-0.546634 17.0441 3.1628 15.324 4.57757 14.4816C6.827 13.1422 9.4865 12.7109 12 13.1878" stroke="#606060" stroke-width="1.5" stroke-linecap="round" stroke-linejoin="round"/>
<path d="M14.5 5.5C14.5 7.98528 12.4853 10 10 10C7.51472 10 5.5 7.98528 5.5 5.5C5.5 3.01472 7.51472 1 10 1C12.4853 1 14.5 3.01472 14.5 5.5Z" stroke="#606060" stroke-width="1.5"/>
<path d="M17.6911 13.5777L18.395 14.9972C18.491 15.1947 18.7469 15.3843 18.9629 15.4206L20.2388 15.6343C21.0547 15.7714 21.2467 16.3682 20.6587 16.957L19.6668 17.9571C19.4989 18.1265 19.4069 18.4531 19.4589 18.687L19.7428 19.925C19.9668 20.9049 19.4509 21.284 18.591 20.7718L17.3951 20.0581C17.1791 19.929 16.8232 19.929 16.6032 20.0581L15.4073 20.7718C14.5514 21.284 14.0315 20.9009 14.2554 19.925L14.5394 18.687C14.5914 18.4531 14.4994 18.1265 14.3314 17.9571L13.3395 16.957C12.7556 16.3682 12.9436 15.7714 13.7595 15.6343L15.0353 15.4206C15.2473 15.3843 15.5033 15.1947 15.5993 14.9972L16.3032 13.5777C16.6872 12.8074 17.3111 12.8074 17.6911 13.5777Z" stroke="#606060" stroke-width="1.5" stroke-linecap="round" stroke-linejoin="round"/>
</svg>
