<svg width="20" height="20" viewBox="0 0 20 20" fill="none" xmlns="http://www.w3.org/2000/svg">
<path d="M10.5 20H4.59087C3.04549 20 1.81631 19.248 0.712661 18.1966C-1.54663 16.0441 2.1628 14.324 3.57757 13.4816C5.827 12.1422 8.4865 11.7109 11 12.1878" fill="white"/>
<path d="M13.5 4.5C13.5 6.98528 11.4853 9 9 9C6.51472 9 4.5 6.98528 4.5 4.5C4.5 2.01472 6.51472 0 9 0C11.4853 0 13.5 2.01472 13.5 4.5Z" fill="white"/>
<path d="M16.6911 12.5777L17.395 13.9972C17.491 14.1947 17.7469 14.3843 17.9629 14.4206L19.2388 14.6343C20.0547 14.7714 20.2467 15.3682 19.6587 15.957L18.6668 16.9571C18.4989 17.1265 18.4069 17.4531 18.4589 17.687L18.7428 18.925C18.9668 19.9049 18.4509 20.284 17.591 19.7718L16.3951 19.0581C16.1791 18.929 15.8232 18.929 15.6032 19.0581L14.4073 19.7718C13.5514 20.284 13.0315 19.9009 13.2554 18.925L13.5394 17.687C13.5914 17.4531 13.4994 17.1265 13.3314 16.9571L12.3395 15.957C11.7556 15.3682 11.9436 14.7714 12.7595 14.6343L14.0353 14.4206C14.2473 14.3843 14.5033 14.1947 14.5993 13.9972L15.3032 12.5777C15.6872 11.8074 16.3111 11.8074 16.6911 12.5777Z" fill="white"/>
</svg>
