<svg width="21" height="20" viewBox="0 0 21 20" fill="none" xmlns="http://www.w3.org/2000/svg">
<path d="M16 4C15.9531 2.44655 15.7797 1.51998 15.1377 0.87868C14.2581 0 12.8423 0 10.0108 0H6.0065C3.17501 0 1.75926 0 0.87963 0.87868C5.96046e-08 1.75736 0 3.17157 0 6V14C0 16.8284 5.96046e-08 18.2426 0.87963 19.1213C1.75926 20 3.17501 20 6.0065 20H10.0108C12.8423 20 14.2581 20 15.1377 19.1213C15.7797 18.48 15.9531 17.5535 16 16" fill="white"/>
<path d="M18.2419 9.7419L19.419 8.5648C19.6894 8.2944 19.8246 8.1592 19.8969 8.0134C20.0344 7.73584 20.0344 7.41003 19.8969 7.13252C19.8246 6.98666 19.6894 6.85145 19.419 6.58104C19.1485 6.31062 19.0133 6.17542 18.8675 6.10314C18.59 5.96562 18.2642 5.96562 17.9866 6.10314C17.8408 6.17542 17.7056 6.31062 17.4352 6.58104L16.2581 7.7581M18.2419 9.7419L12.9757 15.0081L10 16L10.9919 13.0243L16.2581 7.7581M18.2419 9.7419L16.2581 7.7581L18.2419 9.7419Z" fill="white"/>
<path d="M18.2419 9.7419L19.419 8.5648C19.6894 8.2944 19.8246 8.1592 19.8969 8.0134C20.0344 7.73584 20.0344 7.41003 19.8969 7.13252C19.8246 6.98666 19.6894 6.85145 19.419 6.58104C19.1485 6.31062 19.0133 6.17542 18.8675 6.10314C18.59 5.96562 18.2642 5.96562 17.9866 6.10314C17.8408 6.17542 17.7056 6.31062 17.4352 6.58104L16.2581 7.7581M18.2419 9.7419L12.9757 15.0081L10 16L10.9919 13.0243L16.2581 7.7581M18.2419 9.7419L16.2581 7.7581" stroke="#060606" stroke-width="1.5" stroke-linecap="round" stroke-linejoin="round"/>
<path d="M3 17H4L5.25 14.5L6.5 17H7.5" stroke="#060606" stroke-width="1.5" stroke-linecap="round" stroke-linejoin="round"/>
<path d="M4 4H12" stroke="#060606" stroke-width="1.5" stroke-linecap="round" stroke-linejoin="round"/>
<path d="M4 8H10" stroke="#060606" stroke-width="1.5" stroke-linecap="round" stroke-linejoin="round"/>
</svg>
