<svg width="22" height="22" viewBox="0 0 22 22" fill="none" xmlns="http://www.w3.org/2000/svg">
<path d="M17 5C16.9531 3.44655 16.7797 2.51998 16.1377 1.87868C15.2581 1 13.8423 1 11.0108 1H7.0065C4.17501 1 2.75926 1 1.87963 1.87868C1 2.75736 1 4.17157 1 7V15C1 17.8284 1 19.2426 1.87963 20.1213C2.75926 21 4.17501 21 7.0065 21H11.0108C13.8423 21 15.2581 21 16.1377 20.1213C16.7797 19.48 16.9531 18.5535 17 17" stroke="#606060" stroke-width="1.5" stroke-linecap="round" stroke-linejoin="round"/>
<path d="M19.2419 10.7419L20.419 9.5648C20.6894 9.2944 20.8246 9.1592 20.8969 9.0134C21.0344 8.73584 21.0344 8.41003 20.8969 8.13252C20.8246 7.98666 20.6894 7.85145 20.419 7.58104C20.1485 7.31062 20.0133 7.17542 19.8675 7.10314C19.59 6.96562 19.2642 6.96562 18.9866 7.10314C18.8408 7.17542 18.7056 7.31062 18.4352 7.58104L17.2581 8.7581M19.2419 10.7419L13.9757 16.0081L11 17L11.9919 14.0243L17.2581 8.7581M19.2419 10.7419L17.2581 8.7581" stroke="#606060" stroke-width="1.5" stroke-linecap="round" stroke-linejoin="round"/>
<path d="M4 18H5L6.25 15.5L7.5 18H8.5" stroke="#606060" stroke-width="1.5" stroke-linecap="round" stroke-linejoin="round"/>
<path d="M5 5H13" stroke="#606060" stroke-width="1.5" stroke-linecap="round" stroke-linejoin="round"/>
<path d="M5 9H11" stroke="#606060" stroke-width="1.5" stroke-linecap="round" stroke-linejoin="round"/>
</svg>
