<svg width="16" height="16" viewBox="0 0 16 16" fill="none" xmlns="http://www.w3.org/2000/svg">
<path d="M8.73828 13.9414C10.0039 13.7773 11.1406 13.1914 12.1484 12.1836C13.1797 11.1523 13.7773 10.0039 13.9414 8.73828H8.73828V13.9414ZM3.5 4.02734C2.49219 5.15234 1.98828 6.47656 1.98828 8C1.98828 9.52344 2.49219 10.8477 3.5 11.9727C4.50781 13.0977 5.76172 13.7539 7.26172 13.9414V2.05859C5.78516 2.24609 4.53125 2.90234 3.5 4.02734ZM8.73828 2.05859V7.26172H13.9414C13.7773 5.90234 13.2031 4.74219 12.2188 3.78125C11.2578 2.79688 10.0977 2.22266 8.73828 2.05859ZM2.69141 2.72656C4.16797 1.25 5.9375 0.511719 8 0.511719C10.0625 0.511719 11.8203 1.25 13.2734 2.72656C14.75 4.17969 15.4883 5.9375 15.4883 8C15.4883 10.0625 14.75 11.832 13.2734 13.3086C11.8203 14.7617 10.0625 15.4883 8 15.4883C5.9375 15.4883 4.16797 14.7617 2.69141 13.3086C1.23828 11.832 0.511719 10.0625 0.511719 8C0.511719 5.9375 1.23828 4.17969 2.69141 2.72656Z" fill="white"/>
</svg>
