<svg width="20" height="20" viewBox="0 0 20 20" fill="none" xmlns="http://www.w3.org/2000/svg">
<path d="M20 10C20 15.5228 15.5228 20 10 20C4.47715 20 0 15.5228 0 10C0 4.47715 4.47715 0 10 0C15.5228 0 20 4.47715 20 10Z" fill="white"/>
<path d="M12.7102 8.06305C12.6111 7.30039 11.7354 6.06817 10.1608 6.06814C8.3312 6.06811 7.56136 7.08141 7.40515 7.58806C7.16145 8.26575 7.21019 9.65905 9.3547 9.81095C12.0354 10.0009 13.1093 10.3174 12.9727 11.958C12.836 13.5985 11.3417 13.953 10.1608 13.9149C8.9798 13.877 7.04764 13.3344 6.97266 11.8752M9.9734 5V6.07177M9.9734 13.9051V14.9999" stroke="#060606" stroke-width="1.5" stroke-linecap="round"/>
</svg>
