<svg width="22" height="22" viewBox="0 0 22 22" fill="none" xmlns="http://www.w3.org/2000/svg">
<path d="M19.9763 11V4.749C19.9763 4.67006 19.9579 4.59189 19.9221 4.51896C19.8863 4.44603 19.8338 4.37978 19.7675 4.324L16.0339 1.176C15.9006 1.06345 15.7197 1.00014 15.5311 1H1.71161C1.52288 1 1.34188 1.06321 1.20843 1.17574C1.07497 1.28826 1 1.44087 1 1.6V20.4C1 20.5591 1.07497 20.7117 1.20843 20.8243C1.34188 20.9368 1.52288 21 1.71161 21H9.30211" fill="white"/>
<path d="M19.9763 11V4.749C19.9763 4.67006 19.9579 4.59189 19.9221 4.51896C19.8863 4.44603 19.8338 4.37978 19.7675 4.324L16.0339 1.176C15.9006 1.06345 15.7197 1.00014 15.5311 1H1.71161C1.52288 1 1.34188 1.06321 1.20843 1.17574C1.07497 1.28826 1 1.44087 1 1.6V20.4C1 20.5591 1.07497 20.7117 1.20843 20.8243C1.34188 20.9368 1.52288 21 1.71161 21H9.30211" stroke="white" stroke-width="1.5" stroke-linecap="round" stroke-linejoin="round"/>
<path d="M18.7299 14.3291L17.5444 15.3286L19.4249 16.9141L20.6109 15.9141C20.7344 15.8101 20.8324 15.6865 20.8993 15.5505C20.9662 15.4146 21.0006 15.2688 21.0006 15.1216C21.0006 14.9744 20.9662 14.8286 20.8993 14.6926C20.8324 14.5566 20.7344 14.4331 20.6109 14.3291C20.4875 14.2248 20.3409 14.142 20.1795 14.0855C20.0181 14.0291 19.8451 14 19.6704 14C19.4956 14 19.3226 14.0291 19.1612 14.0855C18.9998 14.142 18.8533 14.2248 18.7299 14.3291Z" fill="#060606"/>
<path d="M17.5438 15.3291L18.7299 14.3291C18.8533 14.2248 18.9998 14.142 19.1612 14.0855C19.3226 14.0291 19.4956 14 19.6704 14C19.8451 14 20.0181 14.0291 20.1795 14.0855C20.3409 14.142 20.4875 14.2248 20.6109 14.3291C20.7344 14.4331 20.8324 14.5566 20.8993 14.6926C20.9662 14.8286 21.0006 14.9744 21.0006 15.1216C21.0006 15.2688 20.9662 15.4146 20.8993 15.5505C20.8324 15.6865 20.7344 15.8101 20.6109 15.9141L19.4249 16.9141L17.5438 15.3281L13.9965 18.3191C13.8191 18.4691 13.7028 18.6627 13.6644 18.8721L13.375 20.4291L15.2216 20.1861C15.4699 20.1537 15.6996 20.0556 15.8775 19.9061L19.4237 16.9141" stroke="white" stroke-width="1.5" stroke-linecap="round" stroke-linejoin="round"/>
<path d="M5.375 5H11.625" stroke="#060606" stroke-width="1.5" stroke-linecap="round" stroke-linejoin="round"/>
<path d="M4.125 10H14.125" stroke="#060606" stroke-width="1.5" stroke-linecap="round" stroke-linejoin="round"/>
<path d="M6.625 15H11.625" stroke="#060606" stroke-width="1.5" stroke-linecap="round" stroke-linejoin="round"/>
<path d="M15.2324 1V4.4C15.2324 4.55913 15.3074 4.71174 15.4408 4.82426C15.5743 4.93679 15.7553 5 15.944 5H19.9765" stroke="#060606" stroke-width="1.5" stroke-linecap="square" stroke-linejoin="round"/>
</svg>
