<svg width="22" height="22" viewBox="0 0 22 22" fill="none" xmlns="http://www.w3.org/2000/svg">
<path d="M19.9702 10.98V4.74152C19.9703 4.66274 19.9519 4.58472 19.9161 4.51194C19.8802 4.43916 19.8277 4.37303 19.7615 4.31737L16.0291 1.17565C15.8958 1.06332 15.715 1.00014 15.5264 1H1.71138C1.52271 1 1.34177 1.06309 1.20836 1.17539C1.07495 1.28768 1 1.43999 1 1.5988V20.3613C1 20.5201 1.07495 20.6724 1.20836 20.7847C1.34177 20.897 1.52271 20.9601 1.71138 20.9601H9.29945M5.74254 8.98403H15.2276M5.74254 4.99202H10.4851M5.74254 12.976H9.29945M17.5444 15.9102L18.73 14.9122C18.8534 14.8081 18.9999 14.7255 19.1612 14.6691C19.3226 14.6128 19.4955 14.5838 19.6702 14.5838C19.8449 14.5838 20.0179 14.6128 20.1792 14.6691C20.3405 14.7255 20.4871 14.8081 20.6104 14.9122C20.7339 15.016 20.8319 15.1393 20.8987 15.275C20.9656 15.4107 21 15.5562 21 15.7031C21 15.85 20.9656 15.9955 20.8987 16.1312C20.8319 16.2669 20.7339 16.3902 20.6104 16.494L19.4248 17.492L17.5444 15.9092L13.9981 18.8942C13.8208 19.0439 13.7046 19.2372 13.6662 19.4461L13.3769 21L15.2229 20.7575C15.4711 20.7251 15.7007 20.6273 15.8785 20.478L19.4236 17.492" stroke="#606060" stroke-width="1.5" stroke-linecap="round" stroke-linejoin="round"/>
<path d="M15.2266 1V4.39321C15.2266 4.55203 15.3015 4.70433 15.4349 4.81663C15.5683 4.92893 15.7493 4.99202 15.9379 4.99202H19.9691" stroke="#606060" stroke-width="1.5" stroke-linecap="round" stroke-linejoin="round"/>
</svg>
