<svg width="17" height="16" viewBox="0 0 17 16" fill="none" xmlns="http://www.w3.org/2000/svg">
<mask id="mask0_208_87881" style="mask-type:luminance" maskUnits="userSpaceOnUse" x="1" y="1" width="15" height="14">
<path fill-rule="evenodd" clip-rule="evenodd" d="M15.3372 6.72727H8.66279V9.43182H12.5047C12.1465 11.15 10.6488 12.1364 8.66279 12.1364C6.3186 12.1364 4.43023 10.2909 4.43023 8C4.43023 5.70909 6.3186 3.86364 8.66279 3.86364C9.67209 3.86364 10.5837 4.21364 11.3 4.78636L13.3837 2.75C12.114 1.66818 10.486 1 8.66279 1C4.6907 1 1.5 4.11818 1.5 8C1.5 11.8818 4.6907 15 8.66279 15C12.2442 15 15.5 12.4545 15.5 8C15.5 7.58636 15.4349 7.14091 15.3372 6.72727Z" fill="white"/>
</mask>
<g mask="url(#mask0_208_87881)">
<path d="M0.848633 12.136V3.86328L6.38352 7.99964L0.848633 12.136Z" fill="#495869"/>
</g>
<mask id="mask1_208_87881" style="mask-type:luminance" maskUnits="userSpaceOnUse" x="1" y="1" width="15" height="14">
<path fill-rule="evenodd" clip-rule="evenodd" d="M15.3372 6.72727H8.66279V9.43182H12.5047C12.1465 11.15 10.6488 12.1364 8.66279 12.1364C6.3186 12.1364 4.43023 10.2909 4.43023 8C4.43023 5.70909 6.3186 3.86364 8.66279 3.86364C9.67209 3.86364 10.5837 4.21364 11.3 4.78636L13.3837 2.75C12.114 1.66818 10.486 1 8.66279 1C4.6907 1 1.5 4.11818 1.5 8C1.5 11.8818 4.6907 15 8.66279 15C12.2442 15 15.5 12.4545 15.5 8C15.5 7.58636 15.4349 7.14091 15.3372 6.72727Z" fill="white"/>
</mask>
<g mask="url(#mask1_208_87881)">
<path d="M0.848633 12.136L10.6161 4.81783L13.1882 5.13601L16.4765 0.363281V15.636H0.848633V12.136Z" fill="#495869"/>
</g>
<mask id="mask2_208_87881" style="mask-type:luminance" maskUnits="userSpaceOnUse" x="1" y="1" width="15" height="14">
<path fill-rule="evenodd" clip-rule="evenodd" d="M15.3372 6.72727H8.66279V9.43182H12.5047C12.1465 11.15 10.6488 12.1364 8.66279 12.1364C6.3186 12.1364 4.43023 10.2909 4.43023 8C4.43023 5.70909 6.3186 3.86364 8.66279 3.86364C9.67209 3.86364 10.5837 4.21364 11.3 4.78636L13.3837 2.75C12.114 1.66818 10.486 1 8.66279 1C4.6907 1 1.5 4.11818 1.5 8C1.5 11.8818 4.6907 15 8.66279 15C12.2442 15 15.5 12.4545 15.5 8C15.5 7.58636 15.4349 7.14091 15.3372 6.72727Z" fill="white"/>
</mask>
<g mask="url(#mask2_208_87881)">
<path d="M0.848633 3.86328L6.38352 7.99964L8.66259 6.05874L16.4765 4.81783V0.363281H0.848633V3.86328Z" fill="#495869"/>
</g>
<mask id="mask3_208_87881" style="mask-type:luminance" maskUnits="userSpaceOnUse" x="1" y="1" width="15" height="14">
<path fill-rule="evenodd" clip-rule="evenodd" d="M15.3372 6.72727H8.66279V9.43182H12.5047C12.1465 11.15 10.6488 12.1364 8.66279 12.1364C6.3186 12.1364 4.43023 10.2909 4.43023 8C4.43023 5.70909 6.3186 3.86364 8.66279 3.86364C9.67209 3.86364 10.5837 4.21364 11.3 4.78636L13.3837 2.75C12.114 1.66818 10.486 1 8.66279 1C4.6907 1 1.5 4.11818 1.5 8C1.5 11.8818 4.6907 15 8.66279 15C12.2442 15 15.5 12.4545 15.5 8C15.5 7.58636 15.4349 7.14091 15.3372 6.72727Z" fill="white"/>
</mask>
<g mask="url(#mask3_208_87881)">
<path d="M16.4764 15.636L6.38338 7.99964L5.08105 7.0451L16.4764 3.86328V15.636Z" fill="#495869"/>
</g>
</svg>
