<svg width="28" height="28" viewBox="0 0 28 28" fill="none" xmlns="http://www.w3.org/2000/svg">
<path d="M4 14.0003C4 10.2504 4 8.37551 4.95494 7.06114C5.26335 6.63665 5.63665 6.26335 6.06114 5.95494C7.37551 5 9.25044 5 13.0003 5H15.0004C18.7502 5 20.6251 5 21.9395 5.95494C22.364 6.26335 22.7373 6.63665 23.0457 7.06114C24.0007 8.37551 24.0007 10.2504 24.0007 14.0003C24.0007 17.7501 24.0007 19.6251 23.0457 20.9394C22.7373 21.3639 22.364 21.7372 21.9395 22.0457C20.6251 23.0006 18.7502 23.0006 15.0004 23.0006H13.0003C9.25044 23.0006 7.37551 23.0006 6.06114 22.0457C5.63665 21.7372 5.26335 21.3639 4.95494 20.9394C4 19.6251 4 17.7501 4 14.0003Z" stroke="#808080" stroke-width="1.5" stroke-linejoin="round"/>
<path d="M4 14.0003C4 10.2504 4 8.37551 4.95494 7.06114C5.26335 6.63665 5.63665 6.26335 6.06114 5.95494C7.37551 5 9.25044 5 13.0003 5H15.0004C18.7502 5 20.6251 5 21.9395 5.95494C22.364 6.26335 22.7373 6.63665 23.0457 7.06114C24.0007 8.37551 24.0007 10.2504 24.0007 14.0003C24.0007 17.7501 24.0007 19.6251 23.0457 20.9394C22.7373 21.3639 22.364 21.7372 21.9395 22.0457C20.6251 23.0006 18.7502 23.0006 15.0004 23.0006H13.0003C9.25044 23.0006 7.37551 23.0006 6.06114 22.0457C5.63665 21.7372 5.26335 21.3639 4.95494 20.9394C4 19.6251 4 17.7501 4 14.0003Z" stroke="black" stroke-opacity="0.2" stroke-width="1.5" stroke-linejoin="round"/>
<path d="M11.5 5.5V22.5006" stroke="#808080" stroke-width="1.5" stroke-linejoin="round"/>
<path d="M11.5 5.5V22.5006" stroke="black" stroke-opacity="0.2" stroke-width="1.5" stroke-linejoin="round"/>
<path d="M19.0001 12L17.7735 13.0572C17.2578 13.5016 17 13.724 17 14.0001C17 14.2762 17.2578 14.4985 17.7735 14.9429L19.0001 16.0001" stroke="#808080" stroke-width="1.5" stroke-linecap="round" stroke-linejoin="round"/>
<path d="M19.0001 12L17.7735 13.0572C17.2578 13.5016 17 13.724 17 14.0001C17 14.2762 17.2578 14.4985 17.7735 14.9429L19.0001 16.0001" stroke="black" stroke-opacity="0.2" stroke-width="1.5" stroke-linecap="round" stroke-linejoin="round"/>
</svg>
