<svg width="22" height="22" viewBox="0 0 22 22" fill="none" xmlns="http://www.w3.org/2000/svg">
<path d="M1 17.6458V7.05426C1 4.20025 1 2.77325 2.09835 1.88663C3.1967 1 4.96446 1 8.5 1H13.5C17.0355 1 18.8032 1 19.9016 1.88663C21 2.77325 21 4.20025 21 7.05426V17.6458C21 19.1575 21 19.9133 20.4225 20.2108C19.4789 20.6971 18.0201 19.6774 17.2864 19.3073C16.6801 19.0014 16.3771 18.8485 16.0406 18.8397C15.6771 18.8301 15.3686 18.9768 14.7136 19.3073L12.325 20.5124C11.6806 20.8374 11.3585 21 11 21C10.6415 21 10.3194 20.8374 9.675 20.5124L7.28641 19.3073C6.68019 19.0014 6.37707 18.8485 6.04066 18.8397C5.67715 18.8301 5.36866 18.9768 4.71359 19.3073C3.97994 19.6774 2.52109 20.6971 1.57744 20.2108C1 19.9133 1 19.1575 1 17.6458Z" stroke="#606060" stroke-width="1.5" stroke-linecap="round" stroke-linejoin="round"/>
<path d="M16 5H6" stroke="#606060" stroke-width="1.5" stroke-linecap="round" stroke-linejoin="round"/>
<path d="M8.5 9H6" stroke="#606060" stroke-width="1.5" stroke-linecap="round" stroke-linejoin="round"/>
<path d="M14.125 8.875C13.0895 8.875 12.25 9.4626 12.25 10.1875C12.25 10.9124 13.0895 11.5 14.125 11.5C15.1605 11.5 16 12.0876 16 12.8125C16 13.5374 15.1605 14.125 14.125 14.125M14.125 8.875C14.9414 8.875 15.6359 9.2402 15.8933 9.75M14.125 8.875V8M14.125 14.125C13.3086 14.125 12.6141 13.7598 12.3567 13.25M14.125 14.125V15" stroke="#606060" stroke-width="1.5" stroke-linecap="round"/>
</svg>
