<svg width="20" height="20" viewBox="0 0 20 20" fill="none" xmlns="http://www.w3.org/2000/svg">
<path d="M0 16.6458V6.05426C0 3.20025 2.98023e-07 1.77325 1.09835 0.88663C2.1967 5.96046e-08 3.96446 0 7.5 0H12.5C16.0355 0 17.8032 5.96046e-08 18.9016 0.88663C20 1.77325 20 3.20025 20 6.05426V16.6458C20 18.1575 20 18.9133 19.4225 19.2108C18.4789 19.6971 17.0201 18.6774 16.2864 18.3073C15.6801 18.0014 15.3771 17.8485 15.0406 17.8397C14.6771 17.8301 14.3686 17.9768 13.7136 18.3073L11.325 19.5124C10.6806 19.8374 10.3585 20 10 20C9.6415 20 9.31937 19.8374 8.675 19.5124L6.28641 18.3073C5.68019 18.0014 5.37707 17.8485 5.04066 17.8397C4.67715 17.8301 4.36866 17.9768 3.71359 18.3073C2.97994 18.6774 1.52109 19.6971 0.577437 19.2108C-2.23517e-07 18.9133 0 18.1575 0 16.6458Z" fill="white"/>
<path d="M15 4H5" stroke="#060606" stroke-width="1.5" stroke-linecap="round" stroke-linejoin="round"/>
<path d="M7.5 8H5" stroke="#060606" stroke-width="1.5" stroke-linecap="round" stroke-linejoin="round"/>
<path d="M13.125 7.875C12.0895 7.875 11.25 8.4626 11.25 9.1875C11.25 9.9124 12.0895 10.5 13.125 10.5C14.1605 10.5 15 11.0876 15 11.8125C15 12.5374 14.1605 13.125 13.125 13.125M13.125 7.875C13.9414 7.875 14.6359 8.2402 14.8933 8.75M13.125 7.875V7M13.125 13.125C12.3086 13.125 11.6141 12.7598 11.3567 12.25M13.125 13.125V14" stroke="#060606" stroke-width="1.5" stroke-linecap="round"/>
</svg>
