<svg width="96" height="96" viewBox="0 0 96 96" fill="none" xmlns="http://www.w3.org/2000/svg">
<rect width="96" height="96" rx="10" fill="#CFE6F5"/>
<path d="M25.6028 32.0039L21.7026 34.604C18.9067 36.468 17.5087 37.4 16.7511 38.8213C15.9935 40.2426 15.9991 41.9131 16.0103 45.254C16.0238 49.2761 16.0612 53.3744 16.1647 57.5213C16.4103 67.3601 16.5331 72.2795 20.1504 75.8968C23.7678 79.5145 28.7536 79.6389 38.7253 79.8882C44.9289 80.0431 51.0774 80.0431 57.2807 79.8882C67.2526 79.6389 72.2383 79.5145 75.8556 75.8968C79.4729 72.2795 79.5958 67.3601 79.8412 57.5213C79.9449 53.3744 79.9821 49.2761 79.9958 45.254C80.007 41.9131 80.0125 40.2426 79.255 38.8213C78.4972 37.4 77.0995 36.468 74.3033 34.604L70.4031 32.0039" stroke="#003180" stroke-width="3" stroke-linejoin="round"/>
<path d="M16 41.6016L38.1219 54.8747C42.9347 57.7624 45.3411 59.2062 48.0003 59.2062C50.6596 59.2062 53.066 57.7624 57.8788 54.8747L80.0006 41.6016" stroke="#003180" stroke-width="3" stroke-linejoin="round"/>
<path d="M25.5996 48.0003V28.8001C25.5996 22.7661 25.5996 19.7491 27.4742 17.8745C29.3487 16 32.3657 16 38.3997 16H57.6C63.634 16 66.651 16 68.5255 17.8745C70.4001 19.7491 70.4001 22.7661 70.4001 28.8001V48.0003" stroke="#003180" stroke-width="3"/>
<path d="M41.6016 41.6009H54.4017M41.6016 28.8008H54.4017" stroke="#003180" stroke-width="3" stroke-linecap="round" stroke-linejoin="round"/>
</svg>
