<svg width="22" height="22" viewBox="0 0 22 22" fill="none" xmlns="http://www.w3.org/2000/svg">
<path d="M9.94696 12H15.2101M6.78906 12H6.79851M12.0522 16H6.78906M15.2101 16H15.2006" stroke="#606060" stroke-width="1.5" stroke-linecap="round" stroke-linejoin="round"/>
<path d="M17.3152 1V3M4.68359 1V3" stroke="#606060" stroke-width="1.5" stroke-linecap="round" stroke-linejoin="round"/>
<path d="M1 11.2432C1 6.88594 1 4.70728 2.31802 3.35364C3.63604 2 5.75736 2 10 2H12C16.2426 2 18.364 2 19.682 3.35364C21 4.70728 21 6.88594 21 11.2432V11.7568C21 16.1141 21 18.2927 19.682 19.6464C18.364 21 16.2426 21 12 21H10C5.75736 21 3.63604 21 2.31802 19.6464C1 18.2927 1 16.1141 1 11.7568V11.2432Z" stroke="#606060" stroke-width="1.5" stroke-linecap="round" stroke-linejoin="round"/>
<path d="M1.52734 7H20.4747" stroke="#606060" stroke-width="1.5" stroke-linecap="round" stroke-linejoin="round"/>
</svg>
