<svg width="22" height="22" viewBox="0 0 22 22" fill="none" xmlns="http://www.w3.org/2000/svg">
<path d="M13.1706 20.3584C17.3536 20.0658 20.6856 16.5086 20.9598 12.043C21.0134 11.1692 21.0134 10.2641 20.9598 9.39021C20.6856 4.92461 17.3536 1.36751 13.1706 1.07481C11.7435 0.974958 10.2536 0.975168 8.8294 1.07481C4.64639 1.36751 1.31441 4.92461 1.04024 9.39021C0.986588 10.2641 0.986588 11.1692 1.04024 12.043C1.1401 13.6695 1.82343 15.1754 2.62791 16.4469C3.09501 17.3371 2.78674 18.4482 2.30021 19.4187C1.94941 20.1185 1.77401 20.4684 1.91484 20.7211C2.05568 20.9739 2.37026 20.982 2.99943 20.9981C4.24367 21.03 5.08268 20.6586 5.74868 20.1417C6.1264 19.8485 6.31527 19.7019 6.44544 19.685C6.5756 19.6682 6.83177 19.7793 7.34401 20.0014C7.8044 20.2009 8.33896 20.3241 8.8294 20.3584C10.2536 20.4581 11.7435 20.4583 13.1706 20.3584Z" fill="white" stroke="white" stroke-width="1.5" stroke-linejoin="round"/>
<path d="M7.5 13.6313H14.5M7.5 8.36816H11" stroke="#060606" stroke-width="1.5" stroke-linecap="round" stroke-linejoin="round"/>
</svg>
