<svg width="32" height="32" viewBox="0 0 32 32" fill="none" xmlns="http://www.w3.org/2000/svg">
<path d="M6.02992 18.7696C5.81727 20.1636 6.768 21.1312 7.93205 21.6134C12.3948 23.4622 18.6052 23.4622 23.0679 21.6134C24.232 21.1312 25.1827 20.1636 24.9701 18.7696C24.8394 17.9129 24.1932 17.1995 23.7144 16.5029C23.0873 15.5793 23.025 14.5718 23.0249 13.5C23.0249 9.35786 19.6559 6 15.5 6C11.3441 6 7.97513 9.35786 7.97513 13.5C7.97503 14.5718 7.91272 15.5793 7.28561 16.5029C6.80684 17.1995 6.16061 17.9129 6.02992 18.7696Z" stroke="#303030" stroke-width="1.5" stroke-linecap="round" stroke-linejoin="round"/>
<path d="M11.5 23C11.9585 24.7252 13.5755 26 15.5 26C17.4245 26 19.0415 24.7252 19.5 23" stroke="#303030" stroke-width="1.5" stroke-linecap="round" stroke-linejoin="round"/>
</svg>
