<svg width="12" height="12" viewBox="0 0 12 12" fill="none" xmlns="http://www.w3.org/2000/svg">
<path d="M9.34375 6.65625V5.34375H6.65625V2.65625H5.34375V5.34375H2.65625V6.65625H5.34375V9.34375H6.65625V6.65625H9.34375ZM10.6562 0C11.0104 0 11.3229 0.135417 11.5938 0.40625C11.8646 0.677083 12 0.989583 12 1.34375V10.6562C12 11.0104 11.8646 11.3229 11.5938 11.5938C11.3229 11.8646 11.0104 12 10.6562 12H1.34375C0.96875 12 0.645833 11.875 0.375 11.625C0.125 11.3542 0 11.0312 0 10.6562V1.34375C0 0.96875 0.125 0.65625 0.375 0.40625C0.645833 0.135417 0.96875 0 1.34375 0H10.6562Z" fill="#38C173"/>
</svg>
