<svg width="14" height="15" viewBox="0 0 14 15" fill="none" xmlns="http://www.w3.org/2000/svg">
<path d="M11.5 11.7617V7.26172H7.73828L7 5.75H3.23828V10.25H7.73828L8.51172 11.7617H11.5ZM8.51172 5.75H13.0117V13.2383H7.73828L7 11.7617H3.23828V14.75H1.76172V3.28906C1.24609 3.00781 0.988281 2.57422 0.988281 1.98828C0.988281 1.58984 1.14062 1.25 1.44531 0.96875C1.75 0.664062 2.10156 0.511719 2.5 0.511719C2.89844 0.511719 3.25 0.664062 3.55469 0.96875C3.85938 1.25 4.01172 1.58984 4.01172 1.98828C4.01172 2.57422 3.75391 3.00781 3.23828 3.28906V4.23828H7.73828L8.51172 5.75Z" fill="white"/>
</svg>
