<svg width="22" height="22" viewBox="0 0 22 22" fill="none" xmlns="http://www.w3.org/2000/svg">
<path d="M1 11C1 6.28596 1 3.92894 2.46446 2.46446C3.92894 1 6.28596 1 11 1C15.7141 1 18.071 1 19.5356 2.46446C21 3.92894 21 6.28596 21 11C21 15.714 21 18.0711 19.5356 19.5356C18.071 21 15.7141 21 11 21C6.28596 21 3.92894 21 2.46446 19.5356C1 18.0711 1 15.714 1 11Z" stroke="#606060" stroke-width="1.5"/>
<path d="M1 6.78906H21" stroke="#606060" stroke-width="1.5" stroke-linejoin="round"/>
<path d="M9.94881 16.2637H16.2646M5.73828 16.2637H6.79091" stroke="#606060" stroke-width="1.5" stroke-linecap="round" stroke-linejoin="round"/>
<path d="M9.94881 12.0527H16.2646M5.73828 12.0527H6.79091" stroke="#606060" stroke-width="1.5" stroke-linecap="round" stroke-linejoin="round"/>
</svg>
