<svg width="22" height="22" viewBox="0 0 22 22" fill="none" xmlns="http://www.w3.org/2000/svg">
<path d="M2.78879 8.03673C2.0814 8.41965 0.226681 9.20155 1.35633 10.1799C1.90815 10.6578 2.52275 10.9996 3.29543 10.9996H7.70457C8.47725 10.9996 9.0918 10.6578 9.6437 10.1799C10.7733 9.20155 8.9186 8.41965 8.21121 8.03673C6.55241 7.1388 4.44759 7.1388 2.78879 8.03673Z" stroke="#606060" stroke-width="1.5"/>
<path d="M7.75 3.27273C7.75 4.52792 6.74264 5.54545 5.5 5.54545C4.25736 5.54545 3.25 4.52792 3.25 3.27273C3.25 2.01753 4.25736 1 5.5 1C6.74264 1 7.75 2.01753 7.75 3.27273Z" stroke="#606060" stroke-width="1.5"/>
<path d="M3 14C3 17.3171 5.68286 20 9 20L8.14286 18.2857" stroke="#606060" stroke-width="1.5" stroke-linecap="round" stroke-linejoin="round"/>
<path d="M19 8C19 4.68286 16.3171 2 13 2L13.8571 3.71429" stroke="#606060" stroke-width="1.5" stroke-linecap="round" stroke-linejoin="round"/>
<path d="M13.7888 18.0367C13.0814 18.4196 11.2267 19.2015 12.3563 20.1799C12.9082 20.6578 13.5227 20.9996 14.2954 20.9996H18.7046C19.4773 20.9996 20.0918 20.6578 20.6437 20.1799C21.7733 19.2015 19.9186 18.4196 19.2112 18.0367C17.5524 17.1388 15.4476 17.1388 13.7888 18.0367Z" stroke="#606060" stroke-width="1.5"/>
<path d="M18.75 13.2727C18.75 14.5279 17.7426 15.5455 16.5 15.5455C15.2574 15.5455 14.25 14.5279 14.25 13.2727C14.25 12.0175 15.2574 11 16.5 11C17.7426 11 18.75 12.0175 18.75 13.2727Z" stroke="#606060" stroke-width="1.5"/>
</svg>
