<svg width="20" height="20" viewBox="0 0 20 20" fill="none" xmlns="http://www.w3.org/2000/svg">
<path d="M1.78879 7.03673C1.0814 7.41965 -0.773319 8.20155 0.356331 9.17995C0.908151 9.65785 1.52275 9.99965 2.29543 9.99965H6.70457C7.47725 9.99965 8.0918 9.65785 8.6437 9.17995C9.7733 8.20155 7.9186 7.41965 7.21121 7.03673C5.55241 6.1388 3.44759 6.1388 1.78879 7.03673Z" fill="white"/>
<path d="M6.75 2.27273C6.75 3.52792 5.74264 4.54545 4.5 4.54545C3.25736 4.54545 2.25 3.52792 2.25 2.27273C2.25 1.01753 3.25736 0 4.5 0C5.74264 0 6.75 1.01753 6.75 2.27273Z" fill="white"/>
<path d="M2 13C2 16.3171 4.68286 19 8 19L7.14286 17.2857" stroke="white" stroke-width="1.5" stroke-linecap="round" stroke-linejoin="round"/>
<path d="M18 7C18 3.68286 15.3171 1 12 1L12.8571 2.71429" stroke="white" stroke-width="1.5" stroke-linecap="round" stroke-linejoin="round"/>
<path d="M12.7888 17.0367C12.0814 17.4196 10.2267 18.2015 11.3563 19.1799C11.9082 19.6578 12.5227 19.9996 13.2954 19.9996H17.7046C18.4773 19.9996 19.0918 19.6578 19.6437 19.1799C20.7733 18.2015 18.9186 17.4196 18.2112 17.0367C16.5524 16.1388 14.4476 16.1388 12.7888 17.0367Z" fill="white"/>
<path d="M17.75 12.2727C17.75 13.5279 16.7426 14.5455 15.5 14.5455C14.2574 14.5455 13.25 13.5279 13.25 12.2727C13.25 11.0175 14.2574 10 15.5 10C16.7426 10 17.75 11.0175 17.75 12.2727Z" fill="white"/>
</svg>
