<svg width="22" height="22" viewBox="0 0 22 22" fill="none" xmlns="http://www.w3.org/2000/svg">
<path d="M18.4173 15.1259C22.368 9.55978 21.3007 4.03898 18.4626 2.10461C15.7809 0.276924 13.4404 1.01346 12.0344 2.18668L10.9998 3.0462M18.4173 15.1259C17.469 16.4618 16.2317 17.8004 14.6605 19.0927C13.1143 20.3642 12.3412 21 11 21C9.6588 21 8.88572 20.3642 7.33953 19.0927C-0.77828 12.4166 0.0180692 4.50326 3.53744 2.10461C6.21909 0.276924 8.55962 1.01346 9.9656 2.18668L10.9998 3.0462M18.4173 15.1259L12.8921 8.16088C12.6659 7.87578 12.2873 7.8144 11.9972 8.01582L9.8111 9.534C9.0418 10.0682 8.04334 9.948 7.3949 9.243C6.53837 8.3118 6.62479 6.75299 7.5777 5.94562L10.9998 3.0462" fill="white"/>
<path d="M18.4173 15.1259C22.368 9.55978 21.3007 4.03898 18.4626 2.10461C15.7809 0.276924 13.4404 1.01346 12.0344 2.18668L10.9998 3.0462M18.4173 15.1259C17.469 16.4618 16.2317 17.8004 14.6605 19.0927C13.1143 20.3642 12.3412 21 11 21C9.6588 21 8.88572 20.3642 7.33953 19.0927C-0.77828 12.4166 0.0180692 4.50326 3.53744 2.10461C6.21909 0.276924 8.55962 1.01346 9.9656 2.18668L10.9998 3.0462M18.4173 15.1259L12.8921 8.16088C12.6659 7.87578 12.2873 7.8144 11.9972 8.01582L9.8111 9.534C9.0418 10.0682 8.04334 9.948 7.3949 9.243C6.53837 8.3118 6.62479 6.75299 7.5777 5.94562L10.9998 3.0462" stroke="#060606" stroke-width="1.5" stroke-linecap="round" stroke-linejoin="round"/>
</svg>
