<svg width="20" height="20" viewBox="0 0 20 20" fill="none" xmlns="http://www.w3.org/2000/svg">
<path d="M19.011 12.2517C19.5329 12.1005 19.7939 12.0249 19.8969 11.8804C20 11.7359 20 11.5034 20 11.0385V8.96163C20 8.49669 20 8.26417 19.8969 8.11971C19.7938 7.97515 19.5329 7.89954 19.011 7.74841C17.0606 7.18349 15.8399 4.99349 16.3433 2.91243C16.4817 2.34011 16.5509 2.05396 16.4848 1.88613C16.4187 1.71829 16.2291 1.60264 15.8497 1.37132L14.125 0.319613C13.7528 0.0926313 13.5667 -0.0208599 13.3997 0.00330546C13.2326 0.0274708 13.0442 0.229396 12.6672 0.633225C11.208 2.19672 8.7936 2.19666 7.33434 0.633129C6.95743 0.229289 6.76898 0.0273742 6.60193 0.00319817C6.43489 -0.0209671 6.24877 0.0925238 5.87653 0.319506L4.15184 1.37122C3.77253 1.60252 3.58287 1.71817 3.51678 1.88598C3.45068 2.05379 3.51987 2.33998 3.65825 2.91236C4.16137 4.99347 2.93972 7.18353 0.98902 7.74843C0.46712 7.89954 0.20617 7.97515 0.10308 8.11961C3.72529e-08 8.26417 0 8.49669 0 8.96163V11.0385C0 11.5034 3.72529e-08 11.7359 0.10308 11.8804C0.20615 12.0249 0.46711 12.1005 0.98902 12.2517C2.9394 12.8166 4.16008 15.0066 3.65672 17.0876C3.51829 17.66 3.44907 17.9461 3.51516 18.1139C3.58126 18.2818 3.77092 18.3975 4.15025 18.6287L5.87495 19.6805C6.24721 19.9074 6.43334 20.021 6.6004 19.9968C6.76746 19.9726 6.95588 19.7706 7.33271 19.3668C8.7927 17.8021 11.2088 17.8019 12.6689 19.3667C13.0457 19.7706 13.2341 19.9725 13.4012 19.9967C13.5682 20.0209 13.7544 19.9073 14.1266 19.6804L15.8513 18.6286C16.2307 18.3974 16.4204 18.2817 16.4864 18.1138C16.5525 17.946 16.4833 17.6599 16.3448 17.0875C15.8412 15.0066 17.0609 12.8167 19.011 12.2517Z" fill="white"/>
<path d="M13.5 9.99831C13.5 12.0744 11.933 13.7574 10 13.7574C8.067 13.7574 6.5 12.0744 6.5 9.99831C6.5 7.92224 8.067 6.23926 10 6.23926C11.933 6.23926 13.5 7.92224 13.5 9.99831Z" stroke="#060606" stroke-width="1.5"/>
</svg>
