<svg width="22" height="22" viewBox="0 0 22 22" fill="none" xmlns="http://www.w3.org/2000/svg">
<path d="M14.5 10.9983C14.5 13.0744 12.933 14.7574 11 14.7574C9.067 14.7574 7.5 13.0744 7.5 10.9983C7.5 8.92224 9.067 7.23926 11 7.23926C12.933 7.23926 14.5 8.92224 14.5 10.9983Z" stroke="#606060" stroke-width="1.5"/>
<path d="M20.011 13.2517C20.5329 13.1005 20.7939 13.0249 20.8969 12.8804C21 12.7359 21 12.5034 21 12.0385V9.96163C21 9.49669 21 9.26417 20.8969 9.11971C20.7938 8.97515 20.5329 8.89954 20.011 8.74841C18.0606 8.18349 16.8399 5.99349 17.3433 3.91243C17.4817 3.34011 17.5509 3.05396 17.4848 2.88613C17.4187 2.71829 17.2291 2.60264 16.8497 2.37132L15.125 1.31961C14.7528 1.09263 14.5667 0.97914 14.3997 1.00331C14.2326 1.02747 14.0442 1.2294 13.6672 1.63323C12.208 3.19672 9.7936 3.19666 8.33434 1.63313C7.95743 1.22929 7.76898 1.02737 7.60193 1.0032C7.43489 0.979033 7.24877 1.09252 6.87653 1.31951L5.15184 2.37122C4.77253 2.60252 4.58287 2.71817 4.51678 2.88598C4.45068 3.05379 4.51987 3.33998 4.65825 3.91236C5.16137 5.99347 3.93972 8.18353 1.98902 8.74843C1.46712 8.89954 1.20617 8.97515 1.10308 9.11961C1 9.26417 1 9.49669 1 9.96163V12.0385C1 12.5034 1 12.7359 1.10308 12.8804C1.20615 13.0249 1.46711 13.1005 1.98902 13.2517C3.9394 13.8166 5.16008 16.0066 4.65672 18.0876C4.51829 18.66 4.44907 18.9461 4.51516 19.1139C4.58126 19.2818 4.77092 19.3975 5.15025 19.6287L6.87495 20.6805C7.24721 20.9074 7.43334 21.021 7.6004 20.9968C7.76746 20.9726 7.95588 20.7706 8.33271 20.3668C9.7927 18.8021 12.2088 18.8019 13.6689 20.3667C14.0457 20.7706 14.2341 20.9725 14.4012 20.9967C14.5682 21.0209 14.7544 20.9073 15.1266 20.6804L16.8513 19.6286C17.2307 19.3974 17.4204 19.2817 17.4864 19.1138C17.5525 18.946 17.4833 18.6599 17.3448 18.0875C16.8412 16.0066 18.0609 13.8167 20.011 13.2517Z" stroke="#606060" stroke-width="1.5" stroke-linecap="round"/>
</svg>
