<svg width="54" height="54" viewBox="0 0 54 54" fill="none" xmlns="http://www.w3.org/2000/svg">
<rect x="1.00195" y="1" width="52" height="52" rx="2" fill="white"/>
<rect x="1.00195" y="1" width="52" height="52" rx="2" stroke="black" stroke-linecap="square"/>
<path d="M26.3184 27.545H22.9104V25.636H26.3204V27.546L26.3184 27.545ZM29.7284 15V21H35.7284L29.7284 15ZM31.0914 25.636H27.6814V27.546H31.0914V25.636ZM31.0914 28.909H27.6814V30.819H31.0914V28.909ZM35.7274 21.5V37.364C35.7274 38.268 34.9954 39 34.0914 39H19.9094C19.6946 39 19.4819 38.9577 19.2834 38.8755C19.0849 38.7933 18.9045 38.6727 18.7526 38.5208C18.4458 38.214 18.2734 37.7979 18.2734 37.364V16.636C18.2734 15.732 19.0054 15 19.9094 15H29.2274V21.5H35.7274ZM32.4544 24.273H21.5454V32.182H32.4554V24.272L32.4544 24.273ZM26.3184 28.909H22.9104V30.819H26.3204V28.909H26.3184Z" fill="black"/>
</svg>
