<svg width="42" height="42" viewBox="0 0 42 42" fill="none" xmlns="http://www.w3.org/2000/svg">
<rect x="1" y="1" width="40" height="40" rx="1" stroke="#E7EDF3" stroke-linecap="square"/>
<path d="M26.3438 22.3438V21H19.6562V22.3438H26.3438ZM26.3438 25V23.6562H23.6562V25H26.3438ZM22.3438 25V23.6562H15.6562V25H22.3438ZM15.6562 21V22.3438H18.3438V21H15.6562ZM26.3438 15.6562C26.6979 15.6562 27 15.7917 27.25 16.0625C27.5208 16.3333 27.6562 16.6458 27.6562 17V25C27.6562 25.3542 27.5208 25.6667 27.25 25.9375C27 26.2083 26.6979 26.3438 26.3438 26.3438H15.6562C15.3021 26.3438 14.9896 26.2083 14.7188 25.9375C14.4688 25.6667 14.3438 25.3542 14.3438 25V17C14.3438 16.6458 14.4688 16.3333 14.7188 16.0625C14.9896 15.7917 15.3021 15.6562 15.6562 15.6562H26.3438Z" fill="#E7EDF3"/>
</svg>
