<svg width="54" height="54" viewBox="0 0 54 54" fill="none" xmlns="http://www.w3.org/2000/svg">
<rect x="1.00195" y="1" width="52" height="52" rx="2" fill="white"/>
<rect x="1.00195" y="1" width="52" height="52" rx="2" stroke="black" stroke-linecap="square"/>
<path d="M36.162 28.1847C35.9335 28.1855 35.7059 28.2137 35.484 28.2687C35.0709 26.6441 34.1991 25.1726 32.9726 24.0298C31.7461 22.887 30.2168 22.1212 28.567 21.8237C28.4207 21.7975 28.2736 21.7751 28.126 21.7567C28.152 20.9317 28.19 19.9777 29.404 19.1207L29.212 18.6367C29.212 18.6367 26.842 19.3717 26.573 21.3967C26.456 20.8457 25.353 20.1567 24.806 20.0257L24.534 20.4637C24.534 20.4637 25.258 20.8257 25.435 21.8247C23.7854 22.1213 22.2558 22.8861 21.0289 24.028C19.8019 25.1699 18.9292 26.6406 18.515 28.2647C18.1538 28.1753 17.7784 28.1579 17.4104 28.2135C17.0424 28.2691 16.689 28.3967 16.3703 28.5889C16.0516 28.7811 15.7739 29.0343 15.5531 29.3338C15.3322 29.6333 15.1725 29.9735 15.083 30.3347C14.9936 30.696 14.9762 31.0713 15.0318 31.4393C15.0875 31.8073 15.215 32.1607 15.4072 32.4794C15.5995 32.7981 15.8526 33.0758 16.1521 33.2967C16.4517 33.5176 16.7918 33.6773 17.153 33.7667C17.7243 33.9082 18.3254 33.8683 18.873 33.6527C19.1147 34.256 19.4233 34.8303 19.793 35.3647L22.145 33.7797C21.507 32.9727 21.125 31.7917 21.058 30.6067C20.988 29.3127 21.302 28.0307 22.128 27.2767C23.83 25.8277 25.684 26.4887 26.841 27.8767H27.153C28.313 26.4887 30.17 25.8287 31.866 27.2767C32.691 28.0307 33.006 29.3147 32.936 30.6067C32.871 31.7917 32.488 32.9727 31.849 33.7797L34.202 35.3647C34.5725 34.8304 34.8818 34.2561 35.124 33.6527C35.8229 33.9288 36.6028 33.916 37.2922 33.617C37.9816 33.3181 38.5239 32.7576 38.8 32.0587C39.0761 31.3599 39.0633 30.58 38.7644 29.8906C38.4654 29.2012 37.9049 28.6588 37.206 28.3827C36.8736 28.2515 36.5194 28.1843 36.162 28.1847ZM17.785 31.8487C17.5633 31.8487 17.3507 31.7606 17.1939 31.6039C17.0371 31.4471 16.949 31.2344 16.949 31.0127C16.949 30.791 17.0371 30.5784 17.1939 30.4216C17.3507 30.2648 17.5633 30.1767 17.785 30.1767C17.9522 30.1772 18.1154 30.2273 18.254 30.3207C18.261 30.7607 18.291 31.1987 18.344 31.6347C18.196 31.7687 17.97 31.8677 17.785 31.8487ZM36.212 31.8487C36.0059 31.8483 35.8072 31.7717 35.654 31.6337C35.7068 31.1976 35.7368 30.759 35.744 30.3197C35.8697 30.2344 36.0163 30.185 36.168 30.1768C36.3197 30.1686 36.4707 30.2019 36.6049 30.2732C36.739 30.3445 36.8512 30.451 36.9293 30.5814C37.0074 30.7117 37.0484 30.8608 37.048 31.0127C37.055 31.4697 36.665 31.8707 36.212 31.8487Z" fill="black"/>
</svg>
