<svg width="20" height="20" viewBox="0 0 20 20" fill="none" xmlns="http://www.w3.org/2000/svg">
<path d="M11 4.44444C11 6.89904 9.2091 8.88889 7 8.88889C4.79086 8.88889 3 6.89904 3 4.44444C3 1.98984 4.79086 0 7 0C9.2091 0 11 1.98984 11 4.44444Z" fill="white"/>
<path d="M13 8.88889C15.2091 8.88889 17 6.89904 17 4.44444C17 1.98984 15.2091 0 13 0" fill="white"/>
<path d="M9 12.2227H5C2.23858 12.2227 0 14.71 0 17.7782C0 19.0055 0.89543 20.0004 2 20.0004H12C13.1046 20.0004 14 19.0055 14 17.7782C14 14.71 11.7614 12.2227 9 12.2227Z" fill="white"/>
<path d="M15 12.2227C17.7614 12.2227 20 14.71 20 17.7782C20 19.0055 19.1046 20.0004 18 20.0004H16.5" fill="white"/>
</svg>
