<svg width="22" height="22" viewBox="0 0 22 22" fill="none" xmlns="http://www.w3.org/2000/svg">
<path d="M12 5.44444C12 7.89904 10.2091 9.88889 8 9.88889C5.79086 9.88889 4 7.89904 4 5.44444C4 2.98984 5.79086 1 8 1C10.2091 1 12 2.98984 12 5.44444Z" stroke="#606060" stroke-width="1.5"/>
<path d="M14 9.88889C16.2091 9.88889 18 7.89904 18 5.44444C18 2.98984 16.2091 1 14 1" stroke="#606060" stroke-width="1.5" stroke-linecap="round" stroke-linejoin="round"/>
<path d="M10 13.2227H6C3.23858 13.2227 1 15.71 1 18.7782C1 20.0055 1.89543 21.0004 3 21.0004H13C14.1046 21.0004 15 20.0055 15 18.7782C15 15.71 12.7614 13.2227 10 13.2227Z" stroke="#606060" stroke-width="1.5" stroke-linejoin="round"/>
<path d="M16 13.2227C18.7614 13.2227 21 15.71 21 18.7782C21 20.0055 20.1046 21.0004 19 21.0004H17.5" stroke="#606060" stroke-width="1.5" stroke-linecap="round" stroke-linejoin="round"/>
</svg>
