<svg width="16" height="11" viewBox="0 0 16 11" fill="none" xmlns="http://www.w3.org/2000/svg">
<path d="M15.4883 2.20312L13.2031 4.76953C14.0703 6.15234 14.5859 7.6875 14.75 9.375H13.2383C13.0977 8.17969 12.7344 7.04297 12.1484 5.96484L9.125 9.375L6.13672 6.35156L1.63672 10.8516L0.511719 9.72656L6.13672 4.10156L9.125 7.125L11.2695 4.66406C9.88672 3.04688 8.19922 2.23828 6.20703 2.23828C4.49609 2.23828 2.94922 2.84766 1.56641 4.06641L0.511719 3.01172C2.19922 1.51172 4.09766 0.761719 6.20703 0.761719C8.59766 0.761719 10.625 1.6875 12.2891 3.53906L14.4336 1.14844L15.4883 2.20312Z" fill="white"/>
</svg>
