<svg width="42" height="42" viewBox="0 0 42 42" fill="none" xmlns="http://www.w3.org/2000/svg">
<rect x="1" y="1" width="40" height="40" rx="1" stroke="#E7EDF3" stroke-linecap="square"/>
<path d="M23.5938 24.3438H25.75L24.6562 21.4375L23.5938 24.3438ZM25.3438 19.6562L28.3438 27.6562H27L26.25 25.6562H23.0938L22.3438 27.6562H21L24 19.6562H25.3438ZM21.5938 23.0312L21.0625 24.4062L19 22.3438L15.6562 25.6562L14.7188 24.7188L18.125 21.375C17.2917 20.4583 16.625 19.4479 16.125 18.3438H17.4688C17.9062 19.1771 18.4167 19.9167 19 20.5625C19.9583 19.5 20.6667 18.3125 21.125 17H13.6562V15.6562H18.3438V14.3438H19.6562V15.6562H24.3438V17H22.375C22.1667 17.6667 21.8229 18.4271 21.3438 19.2812C20.8646 20.1146 20.3854 20.8021 19.9062 21.3438L19.875 21.375L21.5938 23.0312Z" fill="#E7EDF3"/>
</svg>
